<svg width="24" height="24" xmlns="http://www.w3.org/2000/svg" fill-rule="evenodd" clip-rule="evenodd"><path d="M6.514 24.015h-3v-3.39c-2.08-.638-3.5-2.652-3.5-5.04 0-1.19.202-1.693 1.774-5.603.521-1.294 1.195-2.97 2.068-5.179.204-.518.67-.806 1.17-.802.482.004.941.284 1.146.802.718 1.817 1.302 3.274 1.777 4.454.26-.596.567-1.288.928-2.103.694-1.565 1.591-3.592 2.754-6.265.258-.592.881-.906 1.397-.888.572.015 1.126.329 1.369.888 1.163 2.673 2.06 4.7 2.754 6.265 2.094 4.727 2.363 5.334 2.363 6.764 0 2.927-2.078 5.422-5 6.082v4.015h-3v-4.015c-.943-.213-1.797-.617-2.523-1.165-.612.845-1.466 1.48-2.477 1.79v3.39zm14.493-6c1.652 0 2.993 1.341 2.993 2.993s-1.341 2.993-2.993 2.993-2.993-1.341-2.993-2.993 1.341-2.993 2.993-2.993zm.007.993c1.104 0 2 .896 2 2s-.896 2-2 2-2-.896-2-2 .896-2 2-2zm-7.5 3.993v-3.839c4.906-.786 5-4.751 5-5.244 0-1.218-.216-1.705-2.277-6.359-2.134-4.82-2.721-6.198-2.755-6.261-.079-.145-.193-.292-.455-.297-.238 0-.37.092-.481.297-.034.063-.621 1.441-2.755 6.261-2.061 4.654-2.277 5.141-2.277 6.359 0 .493.094 4.458 5 5.244v3.839h1zm-6.123-12.448l-.08-.198c-1.589-3.957-2.04-5.116-2.067-5.171-.072-.151-.15-.226-.226-.228-.109 0-.188.13-.235.228-.028.05-.316.818-2.066 5.171-1.542 3.833-1.703 4.233-1.703 5.23 0 1.988 1.076 3.728 3.5 4.25v3.166h1v-3.166c1.266-.273 2.159-.876 2.725-1.666-1.078-1.12-1.725-2.619-1.725-4.251 0-.979.126-1.572.877-3.365z"/></svg>