<svg id="Capa_1" enable-background="new 0 0 512.032 512.032" height="512" viewBox="0 0 512.032 512.032" width="512" xmlns="http://www.w3.org/2000/svg"><g><path d="m456.118 205.061-341.359-197.08c-18.421-10.639-40.416-10.641-58.835-.008-18.426 10.636-29.426 29.688-29.426 50.963v394.16c0 21.275 11 40.327 29.425 50.963 9.208 5.315 19.31 7.973 29.411 7.973 10.106 0 20.212-2.661 29.424-7.981l34.35-19.83c3.587-2.071 4.816-6.658 2.745-10.245-2.072-3.588-6.658-4.818-10.245-2.745l-34.351 19.831c-13.035 7.529-28.469 7.894-41.746 1.124l225.564-225.564 75.004 75.012-199.101 114.947c-3.587 2.071-4.816 6.658-2.745 10.245 2.071 3.588 6.658 4.816 10.245 2.745l281.64-162.6c18.419-10.636 29.416-29.684 29.416-50.955s-10.997-40.319-29.416-50.955zm-414.62 248.035v-394.16c0-11.459 4.301-22.039 11.861-30.023l70.136 70.136c1.464 1.465 3.384 2.197 5.303 2.197s3.839-.732 5.303-2.197c2.929-2.929 2.929-7.678 0-10.606l-68.593-68.594c13.278-6.771 28.713-6.408 41.751 1.122l258.824 149.43-75.007 75.007-135.975-135.966c-2.93-2.929-7.678-2.928-10.606 0-2.929 2.929-2.929 7.678 0 10.607l135.974 135.965-227.107 227.108c-7.562-7.984-11.864-18.565-11.864-30.026zm407.12-159.115-69.089 39.888-77.846-77.854 77.85-77.85 69.086 39.886c13.723 7.924 21.916 22.116 21.916 37.965s-8.194 30.041-21.917 37.965z"/></g></svg>