<?xml version="1.0" encoding="iso-8859-1"?>
<!-- Generator: Adobe Illustrator 19.0.0, SVG Export Plug-In . SVG Version: 6.00 Build 0)  -->
<svg version="1.1" id="Capa_1" xmlns="http://www.w3.org/2000/svg" xmlns:xlink="http://www.w3.org/1999/xlink" x="0px" y="0px"
	 viewBox="0 0 512 512" style="enable-background:new 0 0 512 512;" xml:space="preserve">
<g>
	<g>
		<g>
			<path d="M31.889,178.381C14.306,178.381,0,192.688,0,210.271v91.46c0,17.584,14.306,31.889,31.889,31.889
				c17.584,0,31.889-14.305,31.889-31.888v-91.461C63.778,192.688,49.472,178.381,31.889,178.381z M48.778,301.731
				c0,9.313-7.577,16.889-16.889,16.889c-9.312,0-16.889-7.576-16.889-16.889V210.27c0-9.313,7.576-16.889,16.889-16.889
				c9.313,0,16.889,7.576,16.889,16.889V301.731z"/>
			<path d="M106.593,135.41c-17.583,0-31.889,14.306-31.889,31.889v177.402c0,17.583,14.305,31.889,31.889,31.889
				c17.583,0,31.889-14.306,31.889-31.889V167.299C138.482,149.716,124.176,135.41,106.593,135.41z M123.482,344.701
				c0,9.313-7.577,16.889-16.889,16.889s-16.889-7.576-16.889-16.889V167.299c0-9.313,7.576-16.889,16.889-16.889
				c9.312,0,16.889,7.576,16.889,16.889V344.701z"/>
			<path d="M181.296,83.216c-17.584,0-31.889,14.306-31.889,31.889v281.789c0,17.583,14.306,31.889,31.889,31.889
				c17.584,0,31.889-14.305,31.889-31.889V115.105C213.185,97.522,198.88,83.216,181.296,83.216z M198.185,396.896
				c0,9.313-7.576,16.889-16.889,16.889s-16.889-7.576-16.889-16.889V115.107c0-9.313,7.576-16.889,16.889-16.889
				s16.889,7.576,16.889,16.888V396.896z"/>
			<path d="M256,48.097c-17.583,0-31.889,14.306-31.889,31.889v352.029c0,17.583,14.305,31.889,31.889,31.889
				c17.583,0,31.889-14.305,31.889-31.889V79.985C287.889,62.402,273.583,48.097,256,48.097z M272.889,432.015
				c0,9.313-7.577,16.889-16.889,16.889s-16.889-7.576-16.889-16.889V79.987c0-9.313,7.576-16.889,16.889-16.889
				c9.312,0,16.889,7.576,16.889,16.888V432.015z"/>
			<path d="M330.703,108.581c-17.583,0-31.889,14.306-31.889,31.89v231.058c0,17.584,14.306,31.89,31.889,31.89
				c17.584,0,31.89-14.306,31.89-31.889V140.471C362.593,122.887,348.287,108.581,330.703,108.581z M347.593,371.531
				c0,9.313-7.576,16.89-16.89,16.89c-9.313,0-16.889-7.577-16.889-16.89V140.471c0-9.313,7.576-16.89,16.889-16.89
				c9.314,0,16.89,7.577,16.89,16.89V371.531z"/>
			<path d="M405.407,83.216c-17.583,0-31.889,14.306-31.889,31.889v281.789c0,17.583,14.306,31.889,31.889,31.889
				c17.583,0,31.889-14.305,31.889-31.889V115.105C437.296,97.522,422.99,83.216,405.407,83.216z M422.296,396.896
				c0,9.313-7.576,16.889-16.889,16.889c-9.313,0-16.889-7.576-16.889-16.889V115.107c0-9.313,7.576-16.889,16.889-16.889
				s16.889,7.576,16.889,16.888V396.896z"/>
			<path d="M480.111,163.863c-17.584,0-31.89,14.306-31.89,31.89v120.495c0,17.584,14.306,31.89,31.89,31.89
				c17.583,0,31.889-14.306,31.889-31.89V195.753C512,178.169,497.694,163.863,480.111,163.863z M497,316.248
				c0,9.314-7.576,16.89-16.889,16.89c-9.314,0-16.89-7.576-16.89-16.89V195.753c0-9.313,7.577-16.89,16.89-16.89
				S497,186.44,497,195.753V316.248z"/>
		</g>
	</g>
</g>
<g>
</g>
<g>
</g>
<g>
</g>
<g>
</g>
<g>
</g>
<g>
</g>
<g>
</g>
<g>
</g>
<g>
</g>
<g>
</g>
<g>
</g>
<g>
</g>
<g>
</g>
<g>
</g>
<g>
</g>
</svg>
